<svg width="228" height="44" viewBox="0 0 228 44" fill="none" xmlns="http://www.w3.org/2000/svg">
  <rect x="1" y="1" width="42" height="42" rx="14" fill="#F3F6FF"/>
  <rect x="1" y="1" width="42" height="42" rx="14" stroke="#D9E3FB"/>
  <path d="M14 14H24.4C28.0451 14 31 16.9549 31 20.6C31 24.2451 28.0451 27.2 24.4 27.2H14V14Z" fill="#274BB3"/>
  <path d="M14 29.2H24.4C28.0451 29.2 31 26.2451 31 22.6C31 18.9549 28.0451 16 24.4 16H14" stroke="white" stroke-width="2.2" stroke-linecap="round"/>
  <path d="M20 12.5H29.5C34.1944 12.5 38 16.3056 38 21C38 25.6944 34.1944 29.5 29.5 29.5H20" stroke="#0F172A" stroke-width="2.2" stroke-linecap="round"/>
  <path d="M20 12.5V29.5" stroke="#0F172A" stroke-width="2.2" stroke-linecap="round"/>
  <path d="M59 16.4H63.758C67.544 16.4 70.034 18.582 70.034 21.918C70.034 25.24 67.544 27.422 63.758 27.422H59V16.4ZM61.518 18.498V25.324H63.632C66.06 25.324 67.474 23.938 67.474 21.918C67.474 19.884 66.06 18.498 63.632 18.498H61.518Z" fill="#151722"/>
  <path d="M72.1416 27.422V16.4H80.4216V18.498H74.6596V20.87H79.7816V22.912H74.6596V25.324H80.4216V27.422H72.1416Z" fill="#151722"/>
  <path d="M87.1546 27.618C83.9726 27.618 81.7346 25.38 81.7346 21.918C81.7346 18.456 83.9726 16.204 87.1546 16.204C89.7706 16.204 91.7446 17.618 92.2446 19.842H89.6286C89.2546 18.918 88.4146 18.344 87.1546 18.344C85.3586 18.344 84.2946 19.688 84.2946 21.918C84.2946 24.134 85.3586 25.478 87.1546 25.478C88.4146 25.478 89.2546 24.918 89.6286 23.98H92.2446C91.7446 26.204 89.7706 27.618 87.1546 27.618Z" fill="#151722"/>
  <path d="M98.977 27.618C95.725 27.618 93.375 25.352 93.375 21.918C93.375 18.47 95.725 16.204 98.977 16.204C102.229 16.204 104.579 18.47 104.579 21.918C104.579 25.352 102.229 27.618 98.977 27.618ZM98.977 25.436C100.755 25.436 102.019 24.078 102.019 21.918C102.019 19.758 100.755 18.386 98.977 18.386C97.199 18.386 95.935 19.758 95.935 21.918C95.935 24.078 97.199 25.436 98.977 25.436Z" fill="#151722"/>
  <path d="M110.386 27.422V16.4H114.984C117.74 16.4 119.466 18.078 119.466 20.59C119.466 23.088 117.74 24.766 114.984 24.766H112.904V27.422H110.386ZM112.904 22.682H114.648C116.186 22.682 116.962 21.932 116.962 20.59C116.962 19.234 116.186 18.484 114.648 18.484H112.904V22.682Z" fill="#151722"/>
  <path d="M125.632 27.618C122.954 27.618 121.144 26.358 121.004 24.26H123.536C123.69 25.128 124.432 25.632 125.632 25.632C126.724 25.632 127.404 25.198 127.404 24.498C127.404 23.868 126.976 23.578 125.492 23.228L124.558 23.018C122.314 22.5 121.34 21.66 121.34 19.912C121.34 17.716 123.102 16.204 125.716 16.204C128.26 16.204 129.994 17.45 130.12 19.492H127.658C127.476 18.68 126.822 18.19 125.758 18.19C124.712 18.19 124.026 18.652 124.026 19.366C124.026 19.954 124.474 20.286 125.758 20.59L126.724 20.814C129.186 21.366 130.104 22.164 130.104 23.868C130.104 26.078 128.288 27.618 125.632 27.618Z" fill="#151722"/>
  <path d="M141.128 16.4H145.886C149.672 16.4 152.162 18.582 152.162 21.918C152.162 25.24 149.672 27.422 145.886 27.422H141.128V16.4ZM143.646 18.498V25.324H145.76C148.188 25.324 149.602 23.938 149.602 21.918C149.602 19.884 148.188 18.498 145.76 18.498H143.646Z" fill="#151722"/>
  <path d="M154.27 27.422V16.4H162.55V18.498H156.788V20.87H161.91V22.912H156.788V25.324H162.55V27.422H154.27Z" fill="#151722"/>
  <path d="M163.863 27.422L167.733 16.4H170.699L174.583 27.422H171.911L171.103 24.892H167.273L166.465 27.422H163.863ZM167.901 22.982H170.461L169.187 18.974L167.901 22.982Z" fill="#151722"/>
  <path d="M175.847 27.422V16.4H178.365V25.324H183.753V27.422H175.847Z" fill="#151722"/>
  <text x="58" y="35" fill="#67738D" font-family="Arial, Helvetica, sans-serif" font-size="10" letter-spacing="1.4">DECISION CREDIT B2B</text>
</svg>
